<?xml version="1.0" encoding="utf-8"?>
<!-- Generator: Adobe Illustrator 28.2.0, SVG Export Plug-In . SVG Version: 6.00 Build 0)  -->
<svg version="1.1" id="Layer_1" xmlns="http://www.w3.org/2000/svg" xmlns:xlink="http://www.w3.org/1999/xlink" x="0px" y="0px"
	 viewBox="0 0 543.4 272.8" style="enable-background:new 0 0 543.4 272.8;" xml:space="preserve">
<style type="text/css">
	.st0{fill:#873587;}
	.st1{fill:#D95CE0;}
	.st2{opacity:0.63;fill:#FFFFFF;enable-background:new    ;}
	.st3{fill:#FFFFFF;}
</style>
<g id="Layer_1-2">
	<path class="st0" d="M394.9,163.5c-4,0-7.8-0.8-11.4-2.3c-7.6-3.3-13.5-9.7-17.4-19c-1.8-4.3-2.8-8.5-3.1-12.9
		c-0.3-4.2,0.3-8.3,1.8-12.4c1.4-3.8,3.7-7.2,6.9-10.3c3.3-3.1,7-5.4,11.5-7.2c4.6-1.9,8.8-2.8,12.9-2.8c1.3,0,2.6,0.1,3.9,0.3
		c5.5,0.8,10.1,2.8,13.7,5.9c3.6,3,6.4,6.6,8.2,10.9c1.9,4.6,1.7,8.4-0.7,11.1c-1.8,2.1-4.9,4-8.7,5.5l-23.8,9.8
		c0.9,1.4,1.9,2.7,3.1,3.7c1.7,1.5,3.6,2.4,5.6,2.7c0.5,0.1,1.1,0.1,1.6,0.1c1.4,0,2.8-0.3,4-0.9l0.1-0.1c1.4-0.6,2.5-1.2,3.6-2
		c1.1-0.9,1.9-1.8,2.6-2.7c0.9-1.4,1.6-2.5,2.2-3.8c0.4-0.8,0.8-1.7,1.3-2.7c0.4-0.8,0.8-1.8,1.3-2.8l0.1-0.2c0.8-1.5,2.1-2.6,4-3.5
		c1.3-0.5,2.4-0.8,3.5-0.8c1,0,1.9,0.2,2.8,0.6c2.1,0.9,3.5,2.4,4.3,4.5c0.7,1.7,0.8,3.8,0.4,6.4c-0.3,2.4-1.2,4.8-2.7,7.6
		c-1.3,2.5-3.3,4.8-6.4,7.7c-2.5,2.3-5.9,4.3-10.5,6.3C404.5,162.4,399.6,163.4,394.9,163.5L394.9,163.5z M401.1,113.8
		c-0.9,0-1.9,0.2-2.8,0.6c-1.9,0.8-3.1,2-3.7,3.7c-0.4,1.1-0.6,2.5-0.4,4l12.5-5.1c-1-1.3-2-2.2-3.1-2.7
		C402.7,114,401.9,113.8,401.1,113.8L401.1,113.8z"/>
	<path id="e" class="st1" d="M411.4,127.4l-26.9,11.1c1.3,3.1,3.1,5.6,5.3,7.5c2.2,1.9,4.6,3,7.1,3.4s5,0.1,7.4-1
		c1.7-0.7,3.1-1.5,4.3-2.4c1.2-1,2.3-2.1,3.2-3.4c0.9-1.4,1.7-2.7,2.4-4.1c0.7-1.4,1.5-3.2,2.6-5.5c0.5-0.9,1.3-1.6,2.6-2.2
		c1.4-0.6,2.7-0.7,3.9-0.2c1.2,0.5,2.1,1.3,2.6,2.7c0.5,1.3,0.6,2.9,0.3,5c-0.3,2.1-1.1,4.2-2.4,6.6s-3.3,4.6-5.8,6.9
		s-5.8,4.1-9.6,5.7c-8.8,3.7-16.7,3.9-23.7,0.9s-12.2-8.8-15.8-17.4c-1.7-4.1-2.6-8-2.9-12c-0.3-4,0.3-7.6,1.6-11.1s3.4-6.5,6.2-9.2
		c2.9-2.7,6.3-4.9,10.5-6.6c5.4-2.2,10.4-3,15.2-2.3c4.7,0.7,8.9,2.4,12.2,5.2c3.4,2.8,5.8,6.1,7.4,9.8c1.4,3.4,1.4,6.1-0.2,8
		C417.6,124.3,415.1,126,411.4,127.4L411.4,127.4L411.4,127.4z M391.9,126.3l19-7.8c-1.7-3.5-3.8-5.8-6.2-6.9
		c-2.4-1.1-5-1.1-7.7,0.1c-2.6,1.1-4.4,2.9-5.3,5.4C390.8,119.5,390.8,122.7,391.9,126.3L391.9,126.3z"/>
	<g id="highlight4">
		<path class="st2" d="M413.6,111.8c-0.3,1.3-6.2-1.9-12-3.5c-5.9-1.5-10.4-3.8-10-5.1s5.7-1.8,11.6-0.2
			C409,104.4,413.9,110.5,413.6,111.8L413.6,111.8z"/>
	</g>
	<path class="st0" d="M406.4,187.2c-0.3,0-0.6,0-0.9,0l-0.4,0l-7.1-1.1c-2.9-0.3-25.8-3.3-40.7-9.8c-9.3-4.1-14.3-9.4-16.4-12.2
		c-5.9-7.8-8.3-13.2-9.4-15.6c-0.1-0.2-0.2-0.4-0.2-0.5c-11.4-23.2-34-70.8-34.3-71.3c-2.1-4.1-2.5-8.7-1.2-13.4
		c1.3-4.3,3.5-7.7,6.7-10.2l0.2-0.2l0.2-0.1c1.9-1.2,3.9-1.9,6.2-2.3c0.9-0.2,1.7-0.2,2.6-0.2c1.5,0,2.9,0.2,4.2,0.4l0.2,0l0.2,0.1
		c2.2,0.6,4.2,1.4,6,2.6c2.3,1.3,4.1,3.3,5.4,5.8c1.9,3.8,4.2,8.3,6.6,13.4c2.4,5,5.3,10.8,9,18c3.8,7.4,7.1,14.1,10.1,20.4
		c1.4,3,2.2,4.5,2.8,5.7l0,0.1c0.8,1.7,1.5,3,3.2,6.6c0.6,1.3,1,2.3,1.4,3.2c0.9,2.1,1.6,3.7,4.2,8.3c0.1,0.1,0.3,0.5,0.6,1
		c0.8,1.5,2.1,4.1,4.5,6.1c3.6,3,7.6,5.3,8.6,5.5l0.2,0c4.2,1,26.3,4.9,31.6,5.9l0.3,0.1l0.3,0.1c9.2,2.6,13.4,10.5,13.4,16.7
		C424.6,179.7,416.6,187.2,406.4,187.2L406.4,187.2z"/>
	<path class="st3" d="M406.4,184.2c-0.2,0-0.5,0-0.7,0h-0.2l-7-1.1c-1.7-0.2-25.1-3.1-39.9-9.6c-8.7-3.8-13.3-8.7-15.2-11.3
		c-5.7-7.5-8-12.7-9-14.9c-0.1-0.2-0.2-0.4-0.2-0.6c-11.3-22.9-33.5-69.6-34.3-71.3c-1.8-3.5-2.1-7.4-1-11.3c1.1-3.7,3-6.6,5.6-8.6
		l0.1-0.1l0.1-0.1c1.5-1,3.2-1.6,5-1.8c0.7-0.1,1.4-0.2,2.1-0.2c1.3,0,2.5,0.2,3.6,0.4l0.1,0l0.1,0c1.9,0.5,3.7,1.3,5.2,2.2
		c1.8,1,3.2,2.6,4.2,4.6c1.9,3.7,4.2,8.2,6.6,13.3c2.4,5,5.3,10.8,9,18c3.8,7.4,7.1,14,10.1,20.3c1.5,3.1,2.2,4.6,2.9,5.8
		c0.8,1.6,1.4,2.9,3.2,6.6c0.6,1.3,1,2.2,1.4,3.1c0.9,2.1,1.6,3.7,4.3,8.5c0.1,0.2,0.3,0.5,0.5,0.9c0.8,1.6,2.4,4.6,5.3,7.1
		c3.2,2.6,7.9,5.7,9.9,6.1l0.1,0c4.8,1.1,31.4,5.8,31.7,5.9l0.1,0l0.1,0c7.7,2.2,11.2,8.7,11.2,13.8
		C421.6,178.1,414.9,184.2,406.4,184.2L406.4,184.2L406.4,184.2z"/>
	<path id="l" class="st1" d="M377.9,153.5c-3.2-0.6-9.1-5-11.2-6.8c-4.1-3.4-5.9-7.7-6.5-8.8c-3.9-6.9-3.8-7.5-5.8-11.8
		c-3.1-6.5-2.6-5.4-6-12.4s-6.8-13.8-10.1-20.3s-6.3-12.5-9-18.1s-4.9-10-6.6-13.3c-0.7-1.4-1.7-2.6-3.1-3.4
		c-1.4-0.9-2.9-1.5-4.4-1.9c-1.6-0.3-3.1-0.5-4.7-0.2c-1.5,0.2-2.8,0.7-3.9,1.4c-2.2,1.7-3.7,4.1-4.6,7.1c-0.9,3.1-0.7,6.2,0.8,9.1
		c0,0,22.7,47.9,34.3,71.4c0.7,1.5,2.8,6.9,8.9,14.9c1.9,2.4,6.1,6.9,14,10.4c14.8,6.5,39.1,9.4,39.1,9.4l6.9,1.1
		c6.5,0.3,12.8-4.2,12.8-10.9c0-4.2-3-9.2-9-10.9C409.8,159.4,382.8,154.7,377.9,153.5L377.9,153.5z"/>
	<path class="st0" d="M96.4,172.6c-5.3,0-9.3-1.3-11.8-3.9c-2.4-2.6-3.7-6.6-3.7-11.7V80.1c0-5.4,1.3-9.4,3.9-11.9
		c2.7-2.5,6.6-3.8,11.7-3.8h33.2c5.1,0,9.6,0.3,13.2,0.9c4.2,0.8,7.6,2.1,10.7,3.9c2.7,1.6,5.2,3.7,7.2,6.2c2.2,2.7,3.7,5.3,4.8,8.2
		c1.1,3,1.7,6.2,1.7,9.4c0,9.4-3.9,16.7-11.5,22c10.8,5.2,16.3,13.7,16.3,25.5c0,6.3-1.6,12-4.9,17c-3.2,5.1-7.6,8.9-13.2,11.3
		c-3.4,1.4-7.3,2.4-11.6,2.9c-4.6,0.6-9.5,0.8-14.7,0.8H96.4L96.4,172.6z M136,143.6c10.6,0,12-4.8,12-9.4c0-3.2-0.9-5.5-2.7-6.8
		c-2-1.4-5.4-2.2-10-2.3H123v18.5H136z M133.6,107c4.1,0,6.4-0.5,7.5-1c1.3-0.5,2.2-1.5,3-3.1l0-0.1l0.1-0.1
		c0.6-1.1,0.9-2.4,0.9-3.9c0-4.5-1.8-5.4-2.3-5.8c-2.1-1.2-5.7-1.7-10.7-1.7H123V107L133.6,107L133.6,107z"/>
	<path id="b" class="st1" d="M127.7,169.6H96.4c-4.5,0-7.7-1-9.6-3s-2.9-5.3-2.9-9.6V80.1c0-4.5,1-7.8,3-9.7s5.1-3,9.6-3h33.2
		c4.9,0,9.2,0.3,12.7,0.9c3.6,0.7,6.8,1.8,9.7,3.5c2.4,1.4,4.6,3.3,6.4,5.5s3.3,4.6,4.3,7.3s1.5,5.5,1.5,8.4
		c0,10.2-5.1,17.7-15.4,22.5c13.4,4.3,20.2,12.6,20.2,25c0,5.7-1.5,10.9-4.4,15.4c-2.9,4.6-6.9,8-11.9,10.2
		c-3.1,1.3-6.7,2.2-10.8,2.7C137.8,169.3,133,169.6,127.7,169.6L127.7,169.6L127.7,169.6z M120,88.3V110h13.6c3.7,0,6.6-0.4,8.6-1.2
		s3.5-2.3,4.6-4.6c0.9-1.6,1.3-3.4,1.3-5.4c0-4.2-1.3-7-3.9-8.4c-2.6-1.4-6.6-2.1-12.1-2.1H120L120,88.3z M135.4,122.1H120v24.5h16
		c10,0,15-4.1,15-12.4c0-4.2-1.3-7.3-3.9-9.2C144.5,123.1,140.6,122.2,135.4,122.1L135.4,122.1L135.4,122.1z"/>
	<path class="st0" d="M219.3,174.4c-4.4,0-8.1-1.3-10.1-3.6c-0.7-0.8-1.3-1.7-1.7-2.7c-0.2,0.1-0.3,0.3-0.5,0.5
		c-2.3,1.9-5,3.3-7.9,4.2c-2.8,0.9-5.9,1.3-9.4,1.3c-4.4,0-8.2-0.9-11.8-2.7c-3.5-1.8-6.2-4.4-8.3-7.7c-2.3-3.8-3.4-9.2-3.4-16.1
		v-31.5c0-3.9,1-7,3-9.1c2-2.1,4.7-3.2,7.9-3.2s5.9,1.1,8,3.4c2,2.1,3,5.2,3,9.1v25.5c0,3.4,0.3,6.2,0.8,8.4c0.6,2,1.4,3.4,2.5,4.4
		c1.1,0.9,2.7,1.4,4.6,1.4s4-0.6,5.8-1.9c0.9-0.6,1.1-1.1,1.7-2.8c0.2-0.6,0.4-1.3,0.7-2c0.4-1.1,1.1-4.4,1.1-13.7v-19.3
		c0-3.9,1-6.9,2.9-9.1c2.4-2.9,7.3-3.9,11.1-3.9c4.7,0,8.6,1.5,10.6,4.2c0.4,0.6,0.8,1.3,1.2,2.1c1-1.1,2-1.9,2.9-2.6
		c2.6-2.1,6-3.2,9.9-3.2s7.7,1,11.1,2.9c3.9,2.1,6.1,5.1,6.5,8.9l0,0.2v0.2c0,2.6-1,5-2.9,6.9c-1.8,1.8-4,2.8-6.4,2.8
		c-0.6,0-1.5-0.1-5.1-1.2l-0.1,0c-1.7-0.6-3.3-0.9-4.9-0.9s-2.9,0.4-3.8,1.1c-1.1,0.8-2.4,2.2-3,4c-0.8,2.3-1.3,5-1.6,7.9
		c-0.3,3.6-0.5,7.5-0.5,11.8v13.2c0,4-1.1,7.1-3.1,9.4C227.6,173.4,222.8,174.4,219.3,174.4L219.3,174.4z"/>
	<path id="ur" class="st1" d="M253.4,109.2c-3.1-1.7-6.4-2.5-9.7-2.5s-6,0.9-8,2.5s-4.5,4.1-6.4,7.4c-0.1-3.3-0.7-5.7-1.9-7.4
		c-3.3-4.4-14.3-3.5-17-0.1c-1.5,1.6-2.2,3.9-2.2,7.1v19.3c0,7.6-0.5,12.5-1.3,14.8c-1.1,2.6-1.1,4.6-3.5,6.2
		c-2.3,1.6-4.9,2.4-7.5,2.4s-4.9-0.7-6.6-2.1c-1.6-1.4-2.7-3.4-3.4-5.9c-0.6-2.5-0.9-5.6-0.9-9.2v-25.5c0-3.1-0.7-5.5-2.2-7.1
		s-3.4-2.4-5.8-2.4s-4.3,0.8-5.7,2.3s-2.2,3.9-2.2,7.1v31.5c0,6.3,1,11.2,3,14.5c1.7,2.8,4,5,7.1,6.6s6.5,2.4,10.4,2.4
		c3.2,0,6-0.4,8.5-1.2s4.8-2,6.9-3.7c2.1-1.7,2.4-3.7,4.3-6.1v2.1c0,2.9,0.7,5,2.1,6.6c3.3,3.8,13.4,3.2,16.4-0.1
		c1.5-1.6,2.3-4,2.3-7.3v-13.2c0-4.8,0.2-8.8,0.5-12.1s0.9-6.2,1.7-8.6c0.8-2.4,2.5-4.2,4-5.4s3.4-1.8,5.7-1.8
		c1.7,0,3.7,0.3,5.9,1.1c2.2,0.7,3.7,1.1,4.2,1.1c1.5,0,3-0.6,4.3-1.9c1.3-1.3,2-2.9,2-4.8C258.1,113.1,256.5,110.9,253.4,109.2
		L253.4,109.2L253.4,109.2z"/>
	<path class="st0" d="M266.5,202.6c-4.4,0-7.5-1.5-9.1-4.6c-1.3-2.4-2-5.7-2-10.1v-75.3c0-4.1,1-7.2,3-9.4c1.9-2.3,4.8-3.5,8.1-3.5
		c3.2,0,6,1.1,8.2,3.4c1.2,1.3,2.1,2.9,2.7,4.7c2.1-1.9,4.2-3.4,6.4-4.6c4-2.2,8.5-3.3,13.4-3.3c5.9,0,11.4,1.6,16.4,4.7
		c4.8,2.9,8.8,7.4,11.8,13.3c2.8,5.7,4.2,12.5,4.2,20.3c0,5.9-0.8,11.1-2.5,15.8c-1.6,4.8-3.9,8.9-6.8,12.3c-2.9,3.3-6.5,6-10.5,7.8
		c-4.1,1.8-8.4,2.8-12.8,2.8c-5.5,0-10.3-1.1-14.1-3.4c-1.8-1-3.5-2.3-5.1-3.7v18.5C277.9,200.7,270.8,202.6,266.5,202.6
		L266.5,202.6z M293.9,121.6c-3.4,0-6.2,1.3-8.5,4c-2.4,2.8-3.6,7.2-3.6,12.9s1.2,9.6,3.6,12.4c2.4,2.8,5.1,4.1,8.6,4.1
		c2.1,0,3.8-0.5,5.4-1.6c1.7-1.2,3.1-3,4.3-5.6c1.1-2.6,1.7-5.8,1.7-9.5s-0.5-6.8-1.6-9.3c-1.1-2.5-2.5-4.3-4.2-5.6
		C297.9,122.2,296,121.6,293.9,121.6L293.9,121.6z"/>
	<path id="p" class="st1" d="M275,112.6v2.1c3.3-4.1,6.7-7,10.2-8.9s7.5-2.9,12-2.9c5.4,0,10.3,1.4,14.8,4.2
		c4.5,2.7,8,6.8,10.7,12.1c2.6,5.3,3.9,11.6,3.9,18.9c0,5.4-0.7,10.3-2.3,14.8c-1.5,4.5-3.6,8.3-6.2,11.3s-5.8,5.4-9.4,7
		s-7.5,2.5-11.6,2.5c-5,0-9.2-1-12.6-3s-6.6-4.9-9.6-8.8v26.2c0,7.6-2.8,11.5-8.4,11.5c-3.3,0-5.4-1-6.5-3s-1.6-4.9-1.6-8.7v-75.3
		c0-3.3,0.7-5.8,2.2-7.4c1.4-1.7,3.4-2.5,5.9-2.5s4.5,0.9,6.1,2.5C274.3,107,275,109.4,275,112.6L275,112.6L275,112.6z M308.4,138.2
		c0-4.1-0.6-7.6-1.9-10.5c-1.3-2.9-3-5.2-5.2-6.8c-2.2-1.5-4.7-2.3-7.4-2.3c-4.3,0-7.9,1.7-10.8,5c-2.9,3.4-4.4,8.4-4.4,14.9
		s1.4,11,4.4,14.4c2.9,3.4,6.5,5.1,10.9,5.1c2.6,0,5-0.7,7.1-2.2c2.2-1.5,3.9-3.8,5.3-6.8C307.7,146,308.4,142.4,308.4,138.2
		L308.4,138.2L308.4,138.2z"/>
	<g id="highlight7">
		<path class="st2" d="M159.1,81.8c-0.7,1.4-6.2-0.1-12.4-3.2c-6.1-3.2-10.4-6.9-9.7-8.3s6.8-0.6,12.9,2.6
			C156.1,76.1,159.8,80.4,159.1,81.8L159.1,81.8z"/>
	</g>
	<g id="highlight6">
		<path class="st2" d="M225.4,148.2c-0.8,0-1.4-5.5-1.4-12.4s0.6-12.4,1.4-12.4s1.8,5.8,1.8,12.6S226.2,148.2,225.4,148.2
			L225.4,148.2L225.4,148.2z"/>
	</g>
	<g id="highlight5">
		<path class="st2" d="M320.1,121.5c-0.7,1.4-6.3-3.7-12.4-6.9s-10.4-6.9-9.6-8.3s6.8-0.6,12.9,2.6
			C317,112.2,320.8,120.1,320.1,121.5L320.1,121.5L320.1,121.5z"/>
	</g>
	<g id="highlight3">
		<path class="st2" d="M182.8,119.3c-1.2,0.3-1.1,0.1-2.3-4c-1.2-4-4.1-7.1-2.9-7.4s3.9,0,5.1,4C184,115.9,184,118.9,182.8,119.3
			L182.8,119.3z"/>
	</g>
	<g id="highlight2">
		<path class="st2" d="M226.2,119.3c-1.2,0.3-1.1,0.1-2.3-4c-1.2-4-4.1-7.1-2.9-7.4s3.9,0,5.1,4
			C227.4,115.9,227.4,118.9,226.2,119.3L226.2,119.3z"/>
	</g>
	<g id="highlight1">
		<path class="st2" d="M161.5,126.3c-0.7,1.4-5,0.5-9.5-1.8c-4.5-2.4-7.7-5.4-6.9-6.8c0.7-1.4,5.5-0.6,10,1.8S162.2,125,161.5,126.3
			L161.5,126.3z"/>
	</g>
	<g id="highlight">
		<path class="st2" d="M254.6,113.5c-0.5,1.2-3.4,1.1-6.7-0.1c-3.3-1.2-5.5-3.2-5.1-4.4c0.5-1.2,3.8-1.3,7-0.1
			C253.1,110.3,255,112.3,254.6,113.5L254.6,113.5L254.6,113.5z"/>
	</g>
</g>
</svg>
