<?xml version="1.0" encoding="UTF-8"?>
<svg id="Layer_1" data-name="Layer 1" xmlns="http://www.w3.org/2000/svg" version="1.1" viewBox="0 0 369 176.5">
  <defs>
    <style>
      .cls-1 {
        fill: #873587;
      }

      .cls-1, .cls-2, .cls-3, .cls-4 {
        stroke-width: 0px;
      }

      .cls-2 {
        isolation: isolate;
        opacity: .6;
      }

      .cls-2, .cls-4 {
        fill: #fff;
      }

      .cls-3 {
        fill: #d95ce0;
      }
    </style>
  </defs>
  <g id="Layer_1-2" data-name="Layer 1-2">
    <path class="cls-1" d="M322.9,126.5c-4,0-7.8-.8-11.4-2.3-7.6-3.3-13.5-9.7-17.4-19-1.8-4.3-2.8-8.5-3.1-12.9-.3-4.2.3-8.3,1.8-12.4,1.4-3.8,3.7-7.2,6.9-10.3,3.3-3.1,7-5.4,11.5-7.2,4.6-1.9,8.8-2.8,12.9-2.8s2.6,0,3.9.3c5.5.8,10.1,2.8,13.7,5.9,3.6,3,6.4,6.6,8.2,10.9,1.9,4.6,1.7,8.4-.7,11.1-1.8,2.1-4.9,4-8.7,5.5l-23.8,9.8c.9,1.4,1.9,2.7,3.1,3.7,1.7,1.5,3.6,2.4,5.6,2.7.5.1,1.1.1,1.6.1,1.4,0,2.8-.3,4-.9h.1c1.4-.7,2.5-1.3,3.6-2.1,1.1-.9,1.9-1.8,2.6-2.7.9-1.4,1.6-2.5,2.2-3.8.4-.8.8-1.7,1.3-2.7.4-.8.8-1.8,1.3-2.8v-.2c.9-1.5,2.2-2.6,4.1-3.5,1.3-.5,2.4-.8,3.5-.8s1.9.2,2.8.6c2.1.9,3.5,2.4,4.3,4.5.7,1.7.8,3.8.4,6.4-.3,2.4-1.2,4.8-2.7,7.6-1.3,2.5-3.3,4.8-6.4,7.7-2.5,2.3-5.9,4.3-10.5,6.3-5.1,2.2-10,3.2-14.7,3.3h0ZM329.1,76.8c-.9,0-1.9.2-2.8.6-1.9.8-3.1,2-3.7,3.7-.4,1.1-.6,2.5-.4,4l12.5-5.1c-1-1.3-2-2.2-3.1-2.7-.9-.3-1.7-.5-2.5-.5h0Z"/>
    <path id="e" class="cls-3" d="M339.4,90.4l-26.9,11.1c1.3,3.1,3.1,5.6,5.3,7.5,2.2,1.9,4.6,3,7.1,3.4s5,.1,7.4-1c1.7-.7,3.1-1.5,4.3-2.4,1.2-1,2.3-2.1,3.2-3.4.9-1.4,1.7-2.7,2.4-4.1.7-1.4,1.5-3.2,2.6-5.5.5-.9,1.3-1.6,2.6-2.2,1.4-.6,2.7-.7,3.9-.2,1.2.5,2.1,1.3,2.6,2.7.5,1.3.6,2.9.3,5-.3,2.1-1.1,4.2-2.4,6.6s-3.3,4.6-5.8,6.9-5.8,4.1-9.6,5.7c-8.8,3.7-16.7,3.9-23.7.9s-12.2-8.8-15.8-17.4c-1.7-4.1-2.6-8-2.9-12s.3-7.6,1.6-11.1,3.4-6.5,6.2-9.2c2.9-2.7,6.3-4.9,10.5-6.6,5.4-2.2,10.4-3,15.2-2.3,4.7.7,8.9,2.4,12.2,5.2,3.4,2.8,5.8,6.1,7.4,9.8,1.4,3.4,1.4,6.1-.2,8-1.3,1.5-3.8,3.2-7.5,4.6h0ZM319.9,89.3l19-7.8c-1.7-3.5-3.8-5.8-6.2-6.9-2.4-1.1-5-1.1-7.7,0-2.6,1.1-4.4,2.9-5.3,5.4-.9,2.4-.9,5.6.2,9.2h0Z"/>
    <g id="highlight4">
      <path class="cls-2" d="M341.6,74.8c-.3,1.3-6.2-1.9-12-3.5-5.9-1.5-10.4-3.8-10-5.1s5.7-1.8,11.6-.2c5.8,1.4,10.7,7.5,10.4,8.8h0Z"/>
    </g>
    <path class="cls-1" d="M334.4,150.2h-1.3l-7.1-1.1c-2.9-.3-25.8-3.3-40.7-9.8-9.3-4.1-14.3-9.4-16.4-12.2-5.9-7.8-8.3-13.2-9.4-15.6-.1-.2-.2-.4-.2-.5-11.4-23.2-34-70.8-34.3-71.3-2.1-4.1-2.5-8.7-1.2-13.4,1.3-4.3,3.5-7.7,6.7-10.2l.2-.2h.2c1.9-1.3,3.9-2,6.2-2.4.9-.2,1.7-.2,2.6-.2,1.5,0,2.9.2,4.2.4h.4c2.2.7,4.2,1.5,6,2.7,2.3,1.3,4.1,3.3,5.4,5.8,1.9,3.8,4.2,8.3,6.6,13.4,2.4,5,5.3,10.8,9,18,3.8,7.4,7.1,14.1,10.1,20.4,1.4,3,2.2,4.5,2.8,5.7h0c.8,1.8,1.5,3.1,3.2,6.7.6,1.3,1,2.3,1.4,3.2.9,2.1,1.6,3.7,4.2,8.3.1.1.3.5.6,1,.8,1.5,2.1,4.1,4.5,6.1,3.6,3,7.6,5.3,8.6,5.5h.2c4.2,1,26.3,4.9,31.6,5.9h.3c0,.1.3.2.3.2,9.2,2.6,13.4,10.5,13.4,16.7,0,9.4-7.9,16.9-18.1,16.9h0Z"/>
    <path class="cls-4" d="M334.4,147.2h-.9l-7-1.1c-1.7-.2-25.1-3.1-39.9-9.6-8.7-3.8-13.3-8.7-15.2-11.3-5.7-7.5-8-12.7-9-14.9-.1-.2-.2-.4-.2-.6-11.3-22.9-33.5-69.6-34.3-71.3-1.8-3.5-2.1-7.4-1-11.3,1.1-3.7,3-6.6,5.6-8.6h.1c0,0,.1-.2.1-.2,1.5-1,3.2-1.6,5-1.8.7,0,1.4-.2,2.1-.2,1.3,0,2.5.2,3.6.4h.2c1.9.5,3.7,1.3,5.2,2.2,1.8,1,3.2,2.6,4.2,4.6,1.9,3.7,4.2,8.2,6.6,13.3,2.4,5,5.3,10.8,9,18,3.8,7.4,7.1,14,10.1,20.3,1.5,3.1,2.2,4.6,2.9,5.8.8,1.6,1.4,2.9,3.2,6.6.6,1.3,1,2.2,1.4,3.1.9,2.1,1.6,3.7,4.3,8.5.1.2.3.5.5.9.8,1.6,2.4,4.6,5.3,7.1,3.2,2.6,7.9,5.7,9.9,6.1h.1c4.8,1.1,31.4,5.8,31.7,5.9h.2c7.7,2.2,11.2,8.7,11.2,13.8.2,8.2-6.5,14.3-15,14.3h0Z"/>
    <path id="l" class="cls-3" d="M305.9,116.5c-3.2-.6-9.1-5-11.2-6.8-4.1-3.4-5.9-7.7-6.5-8.8-3.9-6.9-3.8-7.5-5.8-11.8-3.1-6.5-2.6-5.4-6-12.4s-6.8-13.8-10.1-20.3-6.3-12.5-9-18.1-4.9-10-6.6-13.3c-.7-1.4-1.7-2.6-3.1-3.4-1.4-.9-2.9-1.5-4.4-1.9-1.6-.3-3.1-.5-4.7-.2-1.5.2-2.8.7-3.9,1.4-2.2,1.7-3.7,4.1-4.6,7.1-.9,3.1-.7,6.2.8,9.1,0,0,22.7,47.9,34.3,71.4.7,1.5,2.8,6.9,8.9,14.9,1.9,2.4,6.1,6.9,14,10.4,14.8,6.5,39.1,9.4,39.1,9.4l6.9,1.1c6.5.3,12.8-4.2,12.8-10.9s-3-9.2-9-10.9c0-.1-27-4.8-31.9-6h0Z"/>
    <path class="cls-1" d="M24.4,135.6c-5.3,0-9.3-1.3-11.8-3.9-2.4-2.6-3.7-6.6-3.7-11.7V43.1c0-5.4,1.3-9.4,3.9-11.9,2.7-2.5,6.6-3.8,11.7-3.8h33.2c5.1,0,9.6.3,13.2.9,4.2.8,7.6,2.1,10.7,3.9,2.7,1.6,5.2,3.7,7.2,6.2,2.2,2.7,3.7,5.3,4.8,8.2,1.1,3,1.7,6.2,1.7,9.4,0,9.4-3.9,16.7-11.5,22,10.8,5.2,16.3,13.7,16.3,25.5s-1.6,12-4.9,17c-3.2,5.1-7.6,8.9-13.2,11.3-3.4,1.4-7.3,2.4-11.6,2.9-4.6.6-9.5.8-14.7.8h-31.3ZM64,106.6c10.6,0,12-4.8,12-9.4s-.9-5.5-2.7-6.8c-2-1.4-5.4-2.2-10-2.3h-12.3v18.5h13ZM61.6,70c4.1,0,6.4-.5,7.5-1,1.3-.5,2.2-1.5,3-3.1h0c0,0,.1-.2.1-.2.6-1.1.9-2.4.9-3.9,0-4.5-1.8-5.4-2.3-5.8-2.1-1.2-5.7-1.7-10.7-1.7h-9.1v15.7h10.6Z"/>
    <path id="b" class="cls-3" d="M55.7,132.6h-31.3c-4.5,0-7.7-1-9.6-3s-2.9-5.3-2.9-9.6V43.1c0-4.5,1-7.8,3-9.7s5.1-3,9.6-3h33.2c4.9,0,9.2.3,12.7.9,3.6.7,6.8,1.8,9.7,3.5,2.4,1.4,4.6,3.3,6.4,5.5s3.3,4.6,4.3,7.3,1.5,5.5,1.5,8.4c0,10.2-5.1,17.7-15.4,22.5,13.4,4.3,20.2,12.6,20.2,25s-1.5,10.9-4.4,15.4c-2.9,4.6-6.9,8-11.9,10.2-3.1,1.3-6.7,2.2-10.8,2.7-4.2.5-9,.8-14.3.8h0ZM48,51.3v21.7h13.6c3.7,0,6.6-.4,8.6-1.2s3.5-2.3,4.6-4.6c.9-1.6,1.3-3.4,1.3-5.4,0-4.2-1.3-7-3.9-8.4-2.6-1.4-6.6-2.1-12.1-2.1h-12.1ZM63.4,85.1h-15.4v24.5h16c10,0,15-4.1,15-12.4s-1.3-7.3-3.9-9.2c-2.6-1.9-6.5-2.8-11.7-2.9h0Z"/>
    <path class="cls-1" d="M147.3,137.4c-4.4,0-8.1-1.3-10.1-3.6-.7-.8-1.3-1.7-1.7-2.7-.2.1-.3.3-.5.5-2.3,1.9-5,3.3-7.9,4.2-2.8.9-5.9,1.3-9.4,1.3s-8.2-.9-11.8-2.7c-3.5-1.8-6.2-4.4-8.3-7.7-2.3-3.8-3.4-9.2-3.4-16.1v-31.5c0-3.9,1-7,3-9.1s4.7-3.2,7.9-3.2,5.9,1.1,8,3.4c2,2.1,3,5.2,3,9.1v25.5c0,3.4.3,6.2.8,8.4.6,2,1.4,3.4,2.5,4.4,1.1.9,2.7,1.4,4.6,1.4s4-.6,5.8-1.9c.9-.6,1.1-1.1,1.7-2.8.2-.6.4-1.3.7-2,.4-1.1,1.1-4.4,1.1-13.7v-19.3c0-3.9,1-6.9,2.9-9.1,2.4-2.9,7.3-3.9,11.1-3.9s8.6,1.5,10.6,4.2c.4.6.8,1.3,1.2,2.1,1-1.1,2-1.9,2.9-2.6,2.6-2.1,6-3.2,9.9-3.2s7.7,1,11.1,2.9c3.9,2.1,6.1,5.1,6.5,8.9v.4c0,2.6-1,5-2.9,6.9-1.8,1.8-4,2.8-6.4,2.8s-1.5,0-5.1-1.2h-.1c-1.7-.6-3.3-.9-4.9-.9s-2.9.4-3.8,1.1c-1.1.8-2.4,2.2-3,4-.8,2.3-1.3,5-1.6,7.9-.3,3.6-.5,7.5-.5,11.8v13.2c0,4-1.1,7.1-3.1,9.4-2.5,2.4-7.3,3.4-10.8,3.4h0Z"/>
    <path id="ur" class="cls-3" d="M181.4,72.2c-3.1-1.7-6.4-2.5-9.7-2.5s-6,.9-8,2.5-4.5,4.1-6.4,7.4c-.1-3.3-.7-5.7-1.9-7.4-3.3-4.4-14.3-3.5-17,0-1.5,1.6-2.2,3.9-2.2,7.1v19.3c0,7.6-.5,12.5-1.3,14.8-1.1,2.6-1.1,4.6-3.5,6.2-2.3,1.6-4.9,2.4-7.5,2.4s-4.9-.7-6.6-2.1c-1.6-1.4-2.7-3.4-3.4-5.9-.6-2.5-.9-5.6-.9-9.2v-25.5c0-3.1-.7-5.5-2.2-7.1s-3.4-2.4-5.8-2.4-4.3.8-5.7,2.3-2.2,3.9-2.2,7.1v31.5c0,6.3,1,11.2,3,14.5,1.7,2.8,4,5,7.1,6.6s6.5,2.4,10.4,2.4,6-.4,8.5-1.2,4.8-2,6.9-3.7c2.1-1.7,2.4-3.7,4.3-6.1v2.1c0,2.9.7,5,2.1,6.6,3.3,3.8,13.4,3.2,16.4-.1,1.5-1.6,2.3-4,2.3-7.3v-13.2c0-4.8.2-8.8.5-12.1s.9-6.2,1.7-8.6,2.5-4.2,4-5.4,3.4-1.8,5.7-1.8,3.7.3,5.9,1.1c2.2.7,3.7,1.1,4.2,1.1,1.5,0,3-.6,4.3-1.9s2-2.9,2-4.8c-.3-2.7-1.9-4.9-5-6.6h0Z"/>
    <path class="cls-1" d="M194.5,165.6c-4.4,0-7.5-1.5-9.1-4.6-1.3-2.4-2-5.7-2-10.1v-75.3c0-4.1,1-7.2,3-9.4,1.9-2.3,4.8-3.5,8.1-3.5s6,1.1,8.2,3.4c1.2,1.3,2.1,2.9,2.7,4.7,2.1-1.9,4.2-3.4,6.4-4.6,4-2.2,8.5-3.3,13.4-3.3s11.4,1.6,16.4,4.7c4.8,2.9,8.8,7.4,11.8,13.3,2.8,5.7,4.2,12.5,4.2,20.3s-.8,11.1-2.5,15.8c-1.6,4.8-3.9,8.9-6.8,12.3-2.9,3.3-6.5,6-10.5,7.8-4.1,1.8-8.4,2.8-12.8,2.8s-10.3-1.1-14.1-3.4c-1.8-1-3.5-2.3-5.1-3.7v18.5c0,12.4-7,14.3-11.3,14.3h0ZM221.9,84.6c-3.4,0-6.2,1.3-8.5,4-2.4,2.8-3.6,7.2-3.6,12.9s1.2,9.6,3.6,12.4c2.4,2.8,5.1,4.1,8.6,4.1s3.8-.5,5.4-1.6c1.7-1.2,3.1-3,4.3-5.6,1.1-2.6,1.7-5.8,1.7-9.5s-.5-6.8-1.6-9.3-2.5-4.3-4.2-5.6c-1.7-1.2-3.6-1.8-5.7-1.8h0Z"/>
    <path id="p" class="cls-3" d="M203,75.6v2.1c3.3-4.1,6.7-7,10.2-8.9s7.5-2.9,12-2.9,10.3,1.4,14.8,4.2c4.5,2.7,8,6.8,10.7,12.1,2.6,5.3,3.9,11.6,3.9,18.9s-.7,10.3-2.3,14.8c-1.5,4.5-3.6,8.3-6.2,11.3s-5.8,5.4-9.4,7-7.5,2.5-11.6,2.5-9.2-1-12.6-3-6.6-4.9-9.6-8.8v26.2c0,7.6-2.8,11.5-8.4,11.5s-5.4-1-6.5-3-1.6-4.9-1.6-8.7v-75.3c0-3.3.7-5.8,2.2-7.4,1.4-1.7,3.4-2.5,5.9-2.5s4.5.9,6.1,2.5c1.7,1.8,2.4,4.2,2.4,7.4h0ZM236.4,101.2c0-4.1-.6-7.6-1.9-10.5-1.3-2.9-3-5.2-5.2-6.8-2.2-1.5-4.7-2.3-7.4-2.3-4.3,0-7.9,1.7-10.8,5-2.9,3.4-4.4,8.4-4.4,14.9s1.4,11,4.4,14.4c2.9,3.4,6.5,5.1,10.9,5.1s5-.7,7.1-2.2c2.2-1.5,3.9-3.8,5.3-6.8,1.3-3,2-6.6,2-10.8h0Z"/>
    <g id="highlight7">
      <path class="cls-2" d="M87.1,44.8c-.7,1.4-6.2,0-12.4-3.2-6.1-3.2-10.4-6.9-9.7-8.3s6.8-.6,12.9,2.6c6.2,3.2,9.9,7.5,9.2,8.9h0Z"/>
    </g>
    <g id="highlight6">
      <path class="cls-2" d="M153.4,111.2c-.8,0-1.4-5.5-1.4-12.4s.6-12.4,1.4-12.4,1.8,5.8,1.8,12.6-1,12.2-1.8,12.2h0Z"/>
    </g>
    <g id="highlight5">
      <path class="cls-2" d="M248.1,84.5c-.7,1.4-6.3-3.7-12.4-6.9s-10.4-6.9-9.6-8.3,6.8-.6,12.9,2.6c6,3.3,9.8,11.2,9.1,12.6h0Z"/>
    </g>
    <g id="highlight3">
      <path class="cls-2" d="M110.8,82.3c-1.2.3-1.1,0-2.3-4-1.2-4-4.1-7.1-2.9-7.4s3.9,0,5.1,4c1.3,4,1.3,7,0,7.4h0Z"/>
    </g>
    <g id="highlight2">
      <path class="cls-2" d="M154.2,82.3c-1.2.3-1.1,0-2.3-4-1.2-4-4.1-7.1-2.9-7.4s3.9,0,5.1,4c1.3,4,1.3,7,0,7.4h0Z"/>
    </g>
    <g id="highlight1">
      <path class="cls-2" d="M89.5,89.3c-.7,1.4-5,.5-9.5-1.8-4.5-2.4-7.7-5.4-6.9-6.8.7-1.4,5.5-.6,10,1.8s7.1,5.5,6.4,6.8h0Z"/>
    </g>
    <g id="highlight">
      <path class="cls-2" d="M182.6,76.5c-.5,1.2-3.4,1.1-6.7,0s-5.5-3.2-5.1-4.4c.5-1.2,3.8-1.3,7,0,3.3,1.4,5.2,3.4,4.8,4.6h0Z"/>
    </g>
  </g>
</svg>