<svg id="facebook_icon" data-name="facebook icon" xmlns="http://www.w3.org/2000/svg" width="52" height="52" viewBox="0 0 52 52">
  <defs>
    <style>
      .cls-1 {
        fill: #fff;
      }

      .cls-2 {
        fill: #ce5ed1;
      }
    </style>
  </defs>
  <g id="Group_25" data-name="Group 25">
    <circle id="Ellipse_18" data-name="Ellipse 18" class="cls-1" cx="26" cy="26" r="26"/>
  </g>
  <path id="Path_758" data-name="Path 758" class="cls-2" d="M111.638,51.479h.932c.044.046.1.025.153.027a17.4,17.4,0,0,1,3.513.448,18.521,18.521,0,0,1,11.456,7.913,17.951,17.951,0,0,1,2.749,6.7,15.87,15.87,0,0,1,.313,2.678c.011.53.007,1.061.011,1.591-.021.249-.017.5-.036.75a18.12,18.12,0,0,1-.5,3.066,18.712,18.712,0,0,1-10.6,12.543,18.655,18.655,0,0,1-5.053,1.416c-.257.034-.21.019-.21-.192q0-6.182,0-12.362c0-.042,0-.084,0-.125,0-.068.026-.1.095-.1.048,0,.1,0,.143,0h4.573c.048,0,.1,0,.143,0,.077.007.106-.034.117-.1.014-.089.033-.176.049-.264q.427-2.319.854-4.638c.042-.228.081-.456.122-.683a.476.476,0,0,0-.223-.022h-5.7c-.18,0-.171,0-.171-.162,0-.709-.007-1.419,0-2.128a6.253,6.253,0,0,1,.21-1.573,2.778,2.778,0,0,1,1.912-2.03A5.536,5.536,0,0,1,117.63,64a16.455,16.455,0,0,1,1.828-.04c.407,0,.812.024,1.217.052.068,0,.1-.008.1-.082,0-.03,0-.06,0-.09q0-2.406,0-4.813c0-.178,0-.177-.178-.219a15.115,15.115,0,0,0-1.7-.272,20.1,20.1,0,0,0-2.162-.148,16.1,16.1,0,0,0-1.842.095,10.733,10.733,0,0,0-2.478.544,6.725,6.725,0,0,0-2.756,1.777,6.989,6.989,0,0,0-1.428,2.438,12.332,12.332,0,0,0-.639,3.845c-.023.96-.009,1.92-.012,2.88,0,.155,0,.155-.157.157h-3.5c-.194,0-.194-.027-.194.194V75.6c0,.042,0,.084,0,.125-.006.086.033.119.117.112.042,0,.083,0,.125,0h3.354c.048,0,.1,0,.143,0,.089-.007.117.036.109.117,0,.03,0,.06,0,.089q0,5.994,0,11.986a.375.375,0,0,1-.015.176.485.485,0,0,1-.175-.03A18.707,18.707,0,0,1,94.371,76.025a17.949,17.949,0,0,1-.853-3.976c-.032-.32-.055-.64-.082-.961a1.706,1.706,0,0,0-.055-.5v-.93a1.451,1.451,0,0,0,.062-.488,18.573,18.573,0,0,1,.218-2.043A18.044,18.044,0,0,1,95.5,61.57a18.574,18.574,0,0,1,8.31-8.145,18.138,18.138,0,0,1,5.141-1.666,18.393,18.393,0,0,1,2.529-.253c.052,0,.109.016.154-.027" transform="translate(-86.073 -44.053)"/>
</svg>
