<svg xmlns="http://www.w3.org/2000/svg" width="53" height="53" viewBox="0 0 53 53">
  <defs>
    <style>
      .cls-1 {
        fill: #fff;
      }

      .cls-2 {
        fill: #ce5ed1;
      }
    </style>
  </defs>
  <g id="Group_28" data-name="Group 28" transform="translate(798 -6270)">
    <circle id="Ellipse_20" data-name="Ellipse 20" class="cls-1" cx="26.5" cy="26.5" r="26.5" transform="translate(-798 6270)"/>
    <g id="Group_27" data-name="Group 27" transform="translate(-788.748 6279.269)">
      <path id="Path_760" data-name="Path 760" class="cls-2" d="M102.464,230.127h16.3a1.839,1.839,0,0,0,.8.147,9.321,9.321,0,0,1,6.612,4.027,10.434,10.434,0,0,1,1.714,6.107q0,5,0,9.991c0,1.5.016,3-.019,4.5a9.753,9.753,0,0,1-2.219,6.315,9.532,9.532,0,0,1-7.5,3.352c-4.79.052-9.581.017-14.372.017-.538,0-1.074-.021-1.611-.072a9.412,9.412,0,0,1-8.564-8.061,5.748,5.748,0,0,0-.211-1.331v-.385c.119-.07.058-.185.058-.276q0-7.143,0-14.285c0-.092.061-.206-.059-.276v-.308a6.336,6.336,0,0,0,.213-1.371,9.158,9.158,0,0,1,7.382-7.8,9.309,9.309,0,0,0,1.478-.284m8.2,31.27c2.178,0,4.355,0,6.533,0a14.609,14.609,0,0,0,1.573-.062,6.335,6.335,0,0,0,5.348-3.532,7.5,7.5,0,0,0,.718-3.423q0-6.859,0-13.718a10.406,10.406,0,0,0-.074-1.5,6.383,6.383,0,0,0-2.89-4.795,6.962,6.962,0,0,0-3.766-1.014q-7.3-.013-14.6-.005a8.586,8.586,0,0,0-1.225.084,5.993,5.993,0,0,0-5.01,3.554,8.04,8.04,0,0,0-.63,3.331q0,7.012,0,14.026a9.746,9.746,0,0,0,.146,1.759,5.884,5.884,0,0,0,3.91,4.809,8.432,8.432,0,0,0,2.938.482q3.516.007,7.033,0" transform="translate(-93.391 -230.127)"/>
      <path id="Path_761" data-name="Path 761" class="cls-2" d="M119.411,249.311a6.7,6.7,0,1,1-6.689-6.7,6.711,6.711,0,0,1,6.689,6.7m-6.7,4.29a4.295,4.295,0,1,0-4.289-4.29,4.315,4.315,0,0,0,4.289,4.29" transform="translate(-95.437 -232.151)"/>
      <path id="Path_762" data-name="Path 762" class="cls-2" d="M132.749,244.326a2.531,2.531,0,0,1,.085-5.061,2.531,2.531,0,1,1-.085,5.061" transform="translate(-106.605 -233.403)"/>
    </g>
  </g>
</svg>
