<svg xmlns="http://www.w3.org/2000/svg" width="42.025" height="42.025" viewBox="0 0 42.025 42.025">
  <defs>
    <style>
      .cls-1 {
        fill: #ce5ed1;
      }
    </style>
  </defs>
  <path id="Path_15" data-name="Path 15" class="cls-1" d="M124.5,61.439a15.347,15.347,0,0,1-2.572,8.59c-.3.441-.229.67.122,1.018,4,3.973,7.971,7.98,11.988,11.937a2.748,2.748,0,0,1,.442,3.665,2.633,2.633,0,0,1-4.087.15c-1.356-1.339-2.7-2.692-4.045-4.04q-4.043-4.044-8.079-8.094c-.311-.313-.508-.309-.873-.074a15.759,15.759,0,1,1,6.77-16.392,14.694,14.694,0,0,1,.334,3.239m-15.8,10.5A10.5,10.5,0,1,0,98.221,61.435a10.49,10.49,0,0,0,10.473,10.508" transform="translate(-92.958 -45.673)"/>
</svg>
