<svg xmlns="http://www.w3.org/2000/svg" width="52" height="52" viewBox="0 0 52 52">
  <defs>
    <style>
      .cls-1 {
        fill: #fff;
      }

      .cls-2 {
        fill: #ce5ed1;
      }
    </style>
  </defs>
  <g id="Group_26" data-name="Group 26" transform="translate(662 -6320)">
    <circle id="Ellipse_19" data-name="Ellipse 19" class="cls-1" cx="26" cy="26" r="26" transform="translate(-662 6320)"/>
    <path id="Path_759" data-name="Path 759" class="cls-2" d="M93.392,170.568c0-.029.02-.041.034-.058l3.08-3.724,6.282-7.592.013-.015c.043-.06.129-.109.127-.174s-.071-.125-.113-.187l-2.214-3.349-2.315-3.5-2.25-3.4-2.261-3.42-.379-.574-.018-.029h.07q3.578,0,7.156,0a.107.107,0,0,1,.1.056Q102.3,147,103.887,149.4l2.6,3.935.47.711c.012.018.025.035.041.058l.346-.418,5.434-6.568q1.047-1.266,2.094-2.533a.119.119,0,0,1,.1-.049q1.014,0,2.028,0h.062a.21.21,0,0,1-.056.08q-3.185,3.852-6.373,7.7-1.316,1.591-2.633,3.179a.083.083,0,0,0-.006.121q1.361,2.056,2.72,4.114l3,4.535,3.058,4.628,1.08,1.634c.006.008.008.021.021.021,0,0,.007.014-.006.014h-7.291c-.013-.022-.025-.045-.039-.067l-1.333-2.016-2.708-4.1q-1.28-1.937-2.559-3.874c-.034-.051-.047-.04-.078,0q-1.622,1.963-3.246,3.925l-4.884,5.9a1.652,1.652,0,0,0-.18.229Zm21.52-1.617c-.019-.03-.029-.047-.04-.063l-3.346-4.977-5.805-8.633q-3.025-4.5-6.048-9a.1.1,0,0,0-.1-.052H96.391c-.02,0-.042-.008-.063.009.012.019.023.037.035.055l4.04,6.009,5.082,7.558q3.038,4.517,6.074,9.036a.109.109,0,0,0,.1.055q1.588,0,3.176,0Z" transform="translate(-741.627 6188.447)"/>
  </g>
</svg>
